<?xml version="1.0" encoding="utf-8"?>
<!-- Generator: Adobe Illustrator 27.9.0, SVG Export Plug-In . SVG Version: 6.00 Build 0)  -->
<svg version="1.1" id="Layer_1" xmlns="http://www.w3.org/2000/svg" xmlns:xlink="http://www.w3.org/1999/xlink" x="0px" y="0px"
	 viewBox="0 0 2111.7 487" style="enable-background:new 0 0 2111.7 487;" xml:space="preserve">
<style type="text/css">
	.st0{fill:#6D6F71;}
	.st1{fill:#F06724;}
	.st2{fill-rule:evenodd;clip-rule:evenodd;fill:#F06724;}
</style>
<path class="st0" d="M2062.1,438.9v-26.4l20.5-35.6h-9l-8.8,17.1c-2.4,4.7-4.5,8.7-6.2,12.8h-0.2c-1.9-4.3-3.7-8.1-6.1-12.8
	l-8.6-17.1h-9l19.4,35.7v26.3H2062.1z M2004.4,438.9h8v-55.2h18.7v-6.8h-45.4v6.8h18.6V438.9z M1940.4,438.9v-26.5
	c0-10.3-0.2-17.8-0.6-25.6l0.3-0.1c3.1,6.7,7.2,13.8,11.5,20.7l19.5,31.5h8v-62h-7.5v25.9c0,9.7,0.2,17.2,0.9,25.5l-0.2,0.1
	c-2.9-6.3-6.5-12.9-11-20.2l-19.6-31.4h-8.6v62H1940.4z M1911.2,376.9v62h7.9v-62H1911.2z M1867.1,413.2l6-17.9
	c1.2-3.8,2.2-7.5,3.1-11.2h0.2c0.9,3.6,1.8,7.3,3.2,11.3l6,17.9H1867.1z M1887.2,419.4l6.5,19.5h8.5l-20.9-62h-9.5l-20.8,62h8.2
	l6.4-19.5H1887.2z M1828.8,438.9h8v-55.2h18.7v-6.8h-45.4v6.8h18.6V438.9z M1775.4,383.4c1.3-0.4,4-0.7,7.8-0.7
	c8.4,0.1,14.1,3.6,14.1,11.6c0,7.1-5.4,11.8-13.8,11.8h-8.1V383.4z M1767.5,438.9h7.9v-26.9h7.5c7.2,0.3,10.5,3.5,12.3,12.1
	c1.7,7.7,3.1,13.1,4.1,14.8h8.2c-1.3-2.4-2.7-8.4-4.7-17c-1.5-6.4-4.3-10.9-9-12.5v-0.3c6.5-2.2,11.5-7.6,11.5-15.8
	c0-4.8-1.7-9-4.8-11.8c-3.8-3.5-9.3-5.1-17.7-5.1c-5.5,0-11.2,0.5-15.2,1.3V438.9z M1754.5,403.2h-23.8v-19.6h25.2v-6.7h-33.1v62
	h34.5v-6.7h-26.5v-22.4h23.8V403.2z M1711.2,430.6c-3.2,1.6-8.1,2.6-12.9,2.6c-14.9,0-23.5-9.8-23.5-24.9c0-16.3,9.5-25.6,23.9-25.6
	c5.1,0,9.4,1.1,12.4,2.6l1.9-6.5c-2.1-1.1-6.9-2.8-14.5-2.8c-19,0-32,13.2-32,32.6c0,20.3,13,31.4,30.3,31.4
	c7.5,0,13.3-1.5,16.2-2.9L1711.2,430.6z M1591.5,376.9v62h7.9v-29.1h29.6v29.1h8v-62h-8v25.9h-29.6v-25.9H1591.5z M1557.9,438.9h8
	v-55.2h18.7v-6.8h-45.4v6.8h18.6V438.9z M1524.5,376.9v62h7.9v-62H1524.5z M1465.9,438.9l8.7-32.3c2.3-8,3.6-14.1,4.7-20.2h0.2
	c0.8,6.3,2.1,12.3,4,20.2l7.7,32.3h8.3l17.4-62h-8.1l-8.1,31.3c-1.9,7.7-3.6,14.6-4.9,21.4h-0.2c-0.9-6.5-2.5-13.9-4.3-21.3
	l-7.5-31.5h-8.3l-8.2,31.3c-2.1,8-4,15.4-5,21.5h-0.2c-1.1-6-2.7-13.7-4.5-21.4l-7.3-31.4h-8.4l15.5,62H1465.9z M1398.1,438.9h8
	v-55.2h18.7v-6.8h-45.4v6.8h18.6V438.9z M1334.1,438.9v-26.5c0-10.3-0.2-17.8-0.6-25.6l0.3-0.1c3.1,6.7,7.2,13.8,11.5,20.7
	l19.5,31.5h8v-62h-7.5v25.9c0,9.7,0.2,17.2,0.9,25.5l-0.2,0.1c-2.9-6.3-6.5-12.9-11-20.2l-19.6-31.4h-8.6v62H1334.1z M1313.6,403.2
	h-23.8v-19.6h25.2v-6.7h-33.1v62h34.5v-6.7h-26.5v-22.4h23.8V403.2z M1262,438.9h7.7l-3.8-62h-10.1l-10.9,30
	c-2.7,7.8-4.9,14.6-6.5,20.9h-0.3c-1.5-6.4-3.6-13.2-6.2-20.9l-10.5-30h-10.1l-4.3,62h7.5l1.6-26.6c0.5-9.3,1-19.7,1.2-27.4h0.2
	c1.7,7.4,4.2,15.4,7.1,24.1l9.9,29.5h6l10.8-30.1c3.1-8.6,5.6-16.3,7.7-23.6h0.3c-0.1,7.7,0.5,18.1,0.9,26.8L1262,438.9z
	 M1169.4,383.5c1.4-0.4,4-0.6,7.5-0.6c8.7,0,14.5,4,14.5,12.1c0,8.6-5.8,13.2-15.4,13.2c-2.6,0-4.8-0.2-6.5-0.6V383.5z
	 M1161.5,438.9h7.9v-24.8c1.8,0.5,4,0.6,6.4,0.6c7.7,0,14.5-2.3,18.7-6.8c3.1-3.2,4.7-7.6,4.7-13.2c0-5.5-2-10-5.4-13
	c-3.6-3.3-9.4-5.2-17.2-5.2c-6.4,0-11.4,0.6-15.2,1.2V438.9z M1123.4,382.5c13.2,0,19.5,12.9,19.5,25.2c0,14.1-7.1,25.8-19.6,25.8
	c-12.5,0-19.5-11.9-19.5-25.1C1103.7,394.7,1110.3,382.5,1123.4,382.5z M1123.7,375.9c-16.4,0-28.5,12.9-28.5,32.6
	c0,18.8,11.4,31.5,27.5,31.5c15.6,0,28.5-11.3,28.5-32.7C1151.3,388.9,1140.4,375.9,1123.7,375.9z M1059.5,438.9h34.1v-6.7h-26.2
	v-55.3h-7.9V438.9z M1046.5,403.2h-23.8v-19.6h25.2v-6.7h-33.1v62h34.5v-6.7h-26.5v-22.4h23.8V403.2z M986.3,438.9l21.9-62h-8.5
	l-10.4,30.6c-2.7,8.1-5.3,15.9-7,23.1h-0.2c-1.6-7.3-3.9-14.8-6.5-23.2l-9.5-30.5h-8.5l20,62H986.3z M950.3,403.2h-23.8v-19.6h25.2
	v-6.7h-33.1v62H953v-6.7h-26.5v-22.4h23.8V403.2z M865.9,383.6c2.1-0.5,5.2-0.8,9.3-0.8c16.7,0,24.9,9.3,24.8,23.9
	c0,16.7-9.2,26.3-26.1,26.3c-3.1,0-6-0.1-8-0.5V383.6z M858,438.8c4,0.5,8.7,0.7,14.4,0.7c11.9,0,21.4-3.1,27.1-8.9
	c5.7-5.7,8.8-14,8.8-24.1c0-10-3.2-17.2-8.6-22.3c-5.4-5.1-13.5-7.7-24.8-7.7c-6.3,0-12,0.6-16.8,1.3V438.8z M818.8,438.9h7.7
	l-3.8-62h-10.1l-10.9,30c-2.7,7.8-4.9,14.6-6.5,20.9H795c-1.5-6.4-3.6-13.2-6.2-20.9l-10.5-30h-10.1l-4.3,62h7.5l1.6-26.6
	c0.5-9.3,1-19.7,1.2-27.4h0.2c1.7,7.4,4.2,15.4,7.1,24.1l9.9,29.5h6l10.8-30.1c3.1-8.6,5.6-16.3,7.7-23.6h0.3
	c-0.1,7.7,0.5,18.1,0.9,26.8L818.8,438.9z M752.6,403.2h-23.8v-19.6H754v-6.7h-33.1v62h34.5v-6.7h-26.5v-22.4h23.8V403.2z
	 M687.3,438.9h8v-55.2h18.7v-6.8h-45.4v6.8h18.6V438.9z M627.8,435.9c3.3,2.2,9.7,4,15.6,4c14.5,0,21.5-8.3,21.5-17.8
	c0-9.1-5.3-14.2-15.6-18.2c-8.5-3.3-12.2-6.2-12.2-12c0-4.2,3.2-9.3,11.5-9.3c5.5,0,9.6,1.8,11.6,2.9l2.2-6.5c-2.7-1.6-7.3-3-13.5-3
	c-11.9,0-19.8,7.2-19.8,16.8c0,8.7,6.2,14,16.2,17.6c8.3,3.2,11.5,6.5,11.5,12.3c0,6.3-4.7,10.6-12.8,10.6c-5.5,0-10.6-1.8-14.2-4
	L627.8,435.9z M604.5,438.9v-26.4l20.5-35.6h-9l-8.8,17.1c-2.4,4.7-4.5,8.7-6.2,12.8h-0.2c-1.9-4.3-3.7-8.1-6.1-12.8l-8.6-17.1h-9
	l19.4,35.7v26.3H604.5z M535,435.9c3.3,2.2,9.7,4,15.6,4c14.5,0,21.5-8.3,21.5-17.8c0-9.1-5.3-14.2-15.6-18.2
	c-8.5-3.3-12.2-6.2-12.2-12c0-4.2,3.2-9.3,11.5-9.3c5.5,0,9.6,1.8,11.6,2.9l2.2-6.5c-2.7-1.6-7.3-3-13.5-3
	c-11.9,0-19.8,7.2-19.8,16.8c0,8.7,6.2,14,16.2,17.6c8.3,3.2,11.5,6.5,11.5,12.3c0,6.3-4.7,10.6-12.8,10.6c-5.5,0-10.6-1.8-14.2-4
	L535,435.9z"/>
<path class="st1" d="M531.8,302.1H593l21-53.3h97.7l21.7,53.3h62.6L686.4,50.4h-45.8L531.8,302.1z M692.8,201.9h-61.5l30.6-78.2
	L692.8,201.9z M1038,152.8h-98.4V204h45.1v40.9c-5.2,2.8-12.2,5.6-21,8.4c-8.8,2.7-19.2,4.1-31.3,4.1c-11.9,0-22.6-2-32.2-6
	c-9.6-4-17.8-9.7-24.7-16.9c-6.9-7.2-12.1-15.8-15.8-25.6c-3.7-9.8-5.5-20.7-5.5-32.5c0-11.6,1.8-22.4,5.5-32.3
	c3.7-10,8.9-18.5,15.8-25.8c6.9-7.2,15.1-12.9,24.7-16.9c9.6-4,20.3-6,32.2-6c14.2,0,26.1,2,35.5,6c9.5,4,18,10,25.6,17.8l39.1-42.6
	c-12.8-11.8-27.7-20.2-44.6-25.1c-16.9-4.9-35.5-7.3-55.6-7.3c-19.7,0-37.8,3.1-54.4,9.2c-16.6,6.2-30.9,15-43,26.5
	c-12.1,11.5-21.5,25.4-28.3,41.8c-6.8,16.3-10.1,34.6-10.1,54.7c0,20.1,3.4,38.4,10.1,54.7c6.8,16.3,16.2,30.3,28.3,41.8
	c12.1,11.5,26.4,20.3,43,26.5c16.6,6.2,34.7,9.2,54.4,9.2c18.5,0,36.6-1.9,54.4-5.7c17.8-3.8,34.8-10,51.2-18.5V152.8z
	 M1089.8,302.1h55.4V123h0.7l109.8,179.1h72.5V50.4h-55.4v174.9h-0.7l-107-174.9h-75.3V302.1z M1382.2,302.1h55.4V50.4h-55.4V302.1z
	"/>
<path class="st1" d="M1654.1,70.3c-10.7-9.5-22.6-16.2-35.9-20.3c-13.3-4-27-6-41.2-6c-12.3,0-24.3,1.7-35.9,5.2
	c-11.6,3.4-21.9,8.6-30.7,15.5c-8.9,6.9-16,15.4-21.3,25.6c-5.3,10.2-8,22-8,35.5c0,14,2.9,25.2,8.7,33.8
	c5.8,8.5,13.1,15.4,21.9,20.6c8.8,5.2,18.2,9.4,28.4,12.4c10.2,3.1,19.7,6.2,28.4,9.2c8.8,3.1,16,6.8,21.9,11.2
	c5.8,4.4,8.7,10.4,8.7,17.9c0,4.5-1.1,8.4-3.4,11.7c-2.3,3.3-5.2,6-8.9,8.2c-3.7,2.1-7.8,3.7-12.4,4.8c-4.6,1.1-9.2,1.6-13.7,1.6
	c-9.2,0-18.2-2.1-26.8-6.2c-8.7-4.1-15.8-10-21.5-17.6l-39.5,43.4C1485,288,1498,296,1512,301c14,5,29.1,7.5,45.5,7.5
	c13,0,25.4-1.7,37.1-5c11.7-3.3,22-8.4,30.9-15.3c8.9-6.9,15.9-15.5,21.1-25.9c5.2-10.4,7.8-22.6,7.8-36.6c0-14.7-2.8-26.4-8.5-35.2
	c-5.7-8.8-12.9-15.8-21.5-21c-8.7-5.2-17.9-9.2-27.9-12.1s-19.3-5.7-27.9-8.5c-8.7-2.8-15.8-6.3-21.5-10.3c-5.7-4-8.5-9.8-8.5-17.4
	c0-4.7,1.2-8.8,3.6-12.1c2.4-3.3,5.4-6,9.2-8c3.8-2,7.8-3.5,12.1-4.4c4.3-0.9,8.4-1.4,12.4-1.4c6.9,0,14.2,1.4,21.9,4.1
	c7.7,2.7,13.8,6.9,18.3,12.6L1654.1,70.3z M1764.2,302.1h55.4V194.7l94.5-144.3h-65.8l-56.5,94.2l-53.3-94.2h-68.9l94.5,144.3V302.1
	z M2091.1,70.3c-10.7-9.5-22.6-16.2-35.9-20.3c-13.3-4-27-6-41.2-6c-12.3,0-24.3,1.7-35.9,5.2c-11.6,3.4-21.9,8.6-30.7,15.5
	c-8.9,6.9-16,15.4-21.3,25.6c-5.3,10.2-8,22-8,35.5c0,14,2.9,25.2,8.7,33.8c5.8,8.5,13.1,15.4,21.9,20.6c8.8,5.2,18.2,9.4,28.4,12.4
	c10.2,3.1,19.7,6.2,28.4,9.2c8.8,3.1,16,6.8,21.9,11.2c5.8,4.4,8.7,10.4,8.7,17.9c0,4.5-1.1,8.4-3.4,11.7c-2.3,3.3-5.2,6-8.9,8.2
	c-3.7,2.1-7.8,3.7-12.4,4.8c-4.6,1.1-9.2,1.6-13.7,1.6c-9.2,0-18.2-2.1-26.8-6.2c-8.7-4.1-15.8-10-21.5-17.6l-39.5,43.4
	c12.1,11.1,25.1,19.2,39.1,24.2c14,5,29.1,7.5,45.5,7.5c13,0,25.4-1.7,37.1-5c11.7-3.3,22-8.4,30.9-15.3
	c8.9-6.9,15.9-15.5,21.1-25.9c5.2-10.4,7.8-22.6,7.8-36.6c0-14.7-2.8-26.4-8.5-35.2c-5.7-8.8-12.9-15.8-21.5-21
	c-8.7-5.2-17.9-9.2-27.9-12.1s-19.3-5.7-27.9-8.5c-8.7-2.8-15.8-6.3-21.5-10.3c-5.7-4-8.5-9.8-8.5-17.4c0-4.7,1.2-8.8,3.6-12.1
	c2.4-3.3,5.4-6,9.2-8c3.8-2,7.8-3.5,12.1-4.4c4.3-0.9,8.4-1.4,12.4-1.4c6.9,0,14.2,1.4,21.9,4.1c7.7,2.7,13.8,6.9,18.3,12.6
	L2091.1,70.3z"/>
<polygon class="st2" points="85.9,269.6 270.6,269.6 270.6,408.1 81.5,466.9 "/>
<polygon class="st2" points="239.8,185.7 363,135.3 459.8,236 332.2,311.6 "/>
<polygon class="st1" points="15.5,206.7 72.7,17.8 226.6,105.9 191.4,252.8 "/>
</svg>
